<svg width="24" height="24" viewBox="0 0 24 24" fill="none" xmlns="http://www.w3.org/2000/svg">
<path d="M13.4364 2.92789C13.7739 2.59045 14.2317 2.40088 14.709 2.40088C15.1863 2.40088 15.644 2.59045 15.9816 2.92789L21.0732 8.0183C21.4106 8.35584 21.6002 8.8136 21.6002 9.29089C21.6002 9.76819 21.4106 10.2259 21.0732 10.5635L11.2368 20.3999H17.4C17.5591 20.3999 17.7117 20.4631 17.8242 20.5756C17.9367 20.6882 18 20.8408 18 20.9999C18 21.159 17.9367 21.3116 17.8242 21.4242C17.7117 21.5367 17.5591 21.5999 17.4 21.5999H9.38395C9.13188 21.6136 8.87975 21.574 8.64403 21.4836C8.4083 21.3932 8.19429 21.2542 8.01595 21.0755L2.92435 15.9839C2.58691 15.6463 2.39734 15.1886 2.39734 14.7113C2.39734 14.234 2.58691 13.7762 2.92435 13.4387L13.4364 2.92669V2.92789ZM15.1332 3.77509C15.0206 3.66261 14.8681 3.59942 14.709 3.59942C14.5499 3.59942 14.3973 3.66261 14.2848 3.77509L6.64555 11.4143L12.5856 17.3543L20.2248 9.71509C20.3372 9.60258 20.4004 9.44999 20.4004 9.29089C20.4004 9.1318 20.3372 8.97921 20.2248 8.86669L15.132 3.77509H15.1332ZM11.7372 18.2039L5.79715 12.2639L3.77275 14.2883C3.66027 14.4008 3.59708 14.5534 3.59708 14.7125C3.59708 14.8716 3.66027 15.0242 3.77275 15.1367L8.86435 20.2283C8.97687 20.3408 9.12946 20.404 9.28855 20.404C9.44765 20.404 9.60024 20.3408 9.71275 20.2283L11.7372 18.2039Z" fill="black"/>
</svg>
