<svg width="288" height="101" viewBox="0 0 288 101" fill="none" xmlns="http://www.w3.org/2000/svg">
<g filter="url(#filter0_i_544_37)">
<path d="M136 7C130.477 7 126 11.477 126 17C126 22.523 130.477 27 136 27C141.523 27 146 22.523 146 17C146 11.477 141.523 7 136 7Z" stroke="#00D4A9" stroke-width="2" stroke-linecap="round" stroke-linejoin="round"/>
<path d="M132 26.168V19L136 12L140 19V26.168" stroke="#00D4A9" stroke-width="2" stroke-linecap="round" stroke-linejoin="round"/>
<path d="M132 19C132 19 133.127 20 134 20C134.873 20 136 19 136 19C136 19 137.127 20 138 20C138.873 20 140 19 140 19" stroke="#00D4A9" stroke-width="2" stroke-linecap="round" stroke-linejoin="round"/>
<path d="M26.888 18.168C28.232 18.168 29.768 18.288 31.496 18.528C33.272 18.72 34.928 19.104 36.464 19.68C38 20.208 39.296 20.928 40.352 21.84C41.408 22.704 41.936 23.784 41.936 25.08C41.936 25.848 41.72 26.496 41.288 27.024C40.856 27.552 40.16 27.816 39.2 27.816C38.48 27.816 37.736 27.672 36.968 27.384C36.248 27.096 35.408 26.808 34.448 26.52C33.536 26.184 32.456 25.872 31.208 25.584C30.008 25.296 28.592 25.152 26.96 25.152C23.792 25.152 21.44 25.728 19.904 26.88C18.416 27.984 17.672 29.52 17.672 31.488C17.672 32.832 18.008 33.96 18.68 34.872C19.352 35.784 20.24 36.576 21.344 37.248C22.496 37.872 23.768 38.4 25.16 38.832C26.6 39.264 28.064 39.672 29.552 40.056C31.232 40.488 32.888 41.016 34.52 41.64C36.2 42.264 37.688 43.08 38.984 44.088C40.28 45.096 41.312 46.368 42.08 47.904C42.896 49.44 43.304 51.384 43.304 53.736C43.304 56.184 42.848 58.392 41.936 60.36C41.024 62.28 39.776 63.936 38.192 65.328C36.608 66.672 34.712 67.728 32.504 68.496C30.296 69.216 27.896 69.576 25.304 69.576C23.864 69.576 22.184 69.432 20.264 69.144C18.344 68.904 16.52 68.472 14.792 67.848C13.064 67.176 11.6 66.312 10.4 65.256C9.19997 64.152 8.59998 62.808 8.59998 61.224C8.59998 60.264 8.83997 59.496 9.31997 58.92C9.84797 58.344 10.616 58.056 11.624 58.056C12.44 58.056 13.112 58.224 13.64 58.56C14.168 58.848 14.624 59.184 15.008 59.568C16.448 60.816 18.08 61.656 19.904 62.088C21.728 62.52 23.6 62.736 25.52 62.736C26.624 62.736 27.776 62.664 28.976 62.52C30.224 62.328 31.352 61.968 32.36 61.44C33.368 60.912 34.208 60.168 34.88 59.208C35.552 58.2 35.888 56.856 35.888 55.176C35.888 53.64 35.576 52.392 34.952 51.432C34.376 50.424 33.584 49.584 32.576 48.912C31.568 48.24 30.368 47.688 28.976 47.256C27.632 46.824 26.168 46.392 24.584 45.96C22.808 45.48 21.056 44.952 19.328 44.376C17.6 43.8 16.064 43.032 14.72 42.072C13.376 41.064 12.272 39.816 11.408 38.328C10.592 36.792 10.184 34.848 10.184 32.496C10.184 30.144 10.616 28.08 11.48 26.304C12.344 24.528 13.52 23.04 15.008 21.84C16.496 20.64 18.248 19.728 20.264 19.104C22.328 18.48 24.536 18.168 26.888 18.168ZM76.9303 79.728C76.9303 77.424 77.0023 74.928 77.1463 72.24C77.3383 69.6 77.5543 66.936 77.7943 64.248C77.0263 65.688 75.7063 66.84 73.8343 67.704C71.9623 68.52 69.8983 68.928 67.6423 68.928C65.0023 68.928 62.5303 68.544 60.2263 67.776C57.9703 67.008 56.0023 65.904 54.3223 64.464C52.6423 62.976 51.3223 61.152 50.3623 58.992C49.4023 56.784 48.9223 54.24 48.9223 51.36C48.9223 47.904 49.3783 44.952 50.2903 42.504C51.2503 40.008 52.5223 37.992 54.1063 36.456C55.7383 34.872 57.6103 33.72 59.7223 33C61.8823 32.232 64.1863 31.848 66.6343 31.848C69.7063 31.848 72.3943 32.28 74.6983 33.144C77.0503 34.008 79.0183 35.52 80.6023 37.68C82.1863 39.84 83.3623 42.744 84.1303 46.392C84.9463 50.04 85.3543 54.672 85.3543 60.288C85.3543 61.92 85.3063 63.744 85.2103 65.76C85.1623 67.728 85.0903 69.696 84.9943 71.664C84.9463 73.632 84.8743 75.504 84.7783 77.28C84.6823 79.104 84.6103 80.616 84.5623 81.816C84.4663 83.688 84.0583 84.984 83.3383 85.704C82.6663 86.472 81.8023 86.856 80.7463 86.856C79.8343 86.856 79.1143 86.64 78.5863 86.208C78.1063 85.824 77.7223 85.296 77.4343 84.624C77.1943 83.952 77.0503 83.184 77.0023 82.32C76.9543 81.504 76.9303 80.64 76.9303 79.728ZM66.9943 39.048C65.7463 39.048 64.5223 39.24 63.3223 39.624C62.1223 40.008 61.0423 40.68 60.0823 41.64C59.1703 42.552 58.4023 43.776 57.7783 45.312C57.2023 46.8 56.9143 48.648 56.9143 50.856C56.9143 53.016 57.1783 54.816 57.7063 56.256C58.2823 57.696 59.0263 58.848 59.9383 59.712C60.8983 60.576 61.9783 61.2 63.1783 61.584C64.4263 61.92 65.7223 62.088 67.0663 62.088C68.7943 62.088 70.2583 61.776 71.4583 61.152C72.7063 60.528 73.6903 59.688 74.4103 58.632C75.1783 57.576 75.7303 56.352 76.0663 54.96C76.4023 53.52 76.5703 52.008 76.5703 50.424C76.5703 47.112 75.8023 44.4 74.2663 42.288C72.7783 40.128 70.3543 39.048 66.9943 39.048ZM99.2593 36.384C99.3553 37.632 99.3793 39.144 99.3313 40.92C99.3313 42.696 99.3553 44.568 99.4033 46.536C99.4993 48.456 99.6673 50.4 99.9073 52.368C100.147 54.288 100.555 56.016 101.131 57.552C101.755 59.088 102.595 60.336 103.651 61.296C104.755 62.256 106.171 62.736 107.899 62.736C109.627 62.736 111.019 62.256 112.075 61.296C113.179 60.336 114.019 59.088 114.595 57.552C115.219 56.016 115.651 54.288 115.891 52.368C116.131 50.4 116.275 48.456 116.323 46.536C116.419 44.568 116.443 42.696 116.395 40.92C116.395 39.144 116.443 37.632 116.539 36.384C116.731 33.408 117.955 31.92 120.211 31.92C121.075 31.92 121.747 32.16 122.227 32.64C122.707 33.12 123.043 33.792 123.235 34.656C123.475 35.52 123.619 36.552 123.667 37.752C123.715 38.952 123.739 40.296 123.739 41.784C123.739 44.856 123.571 48.048 123.235 51.36C122.947 54.624 122.251 57.624 121.147 60.36C120.091 63.096 118.507 65.352 116.395 67.128C114.283 68.904 111.451 69.792 107.899 69.792C104.347 69.792 101.515 68.904 99.4033 67.128C97.2913 65.352 95.6833 63.096 94.5793 60.36C93.5233 57.624 92.8273 54.624 92.4913 51.36C92.2033 48.048 92.0593 44.856 92.0593 41.784C92.0593 40.296 92.0833 38.952 92.1313 37.752C92.1793 36.552 92.2993 35.52 92.4913 34.656C92.7313 33.792 93.0913 33.12 93.5713 32.64C94.0513 32.16 94.7233 31.92 95.5873 31.92C97.8433 31.92 99.0673 33.408 99.2593 36.384ZM161.248 78.864C163.504 78.864 165.4 78.408 166.936 77.496C168.52 76.632 169.792 75.36 170.752 73.68C171.712 72.048 172.384 70.08 172.768 67.776C173.2 65.424 173.416 62.784 173.416 59.856C172.984 61.392 172.36 62.688 171.544 63.744C170.728 64.8 169.768 65.664 168.664 66.336C167.608 66.96 166.408 67.416 165.064 67.704C163.72 67.992 162.328 68.136 160.888 68.136C158.68 68.136 156.592 67.824 154.624 67.2C152.656 66.576 150.928 65.592 149.44 64.248C148 62.904 146.848 61.2 145.984 59.136C145.12 57.024 144.688 54.504 144.688 51.576C144.688 48.744 145.096 46.152 145.912 43.8C146.776 41.4 148 39.336 149.584 37.608C151.216 35.88 153.184 34.536 155.488 33.576C157.792 32.616 160.432 32.136 163.408 32.136C164.992 32.136 166.384 32.28 167.584 32.568C168.832 32.856 169.936 33.24 170.896 33.72C171.856 34.2 172.696 34.776 173.416 35.448C174.184 36.12 174.88 36.84 175.504 37.608C177.328 39.912 178.648 42.648 179.464 45.816C180.28 48.936 180.688 52.704 180.688 57.12C180.688 60.384 180.4 63.72 179.824 67.128C179.296 70.536 178.312 73.608 176.872 76.344C175.432 79.128 173.44 81.384 170.896 83.112C168.352 84.888 165.088 85.776 161.104 85.776C160.384 85.776 159.568 85.728 158.656 85.632C157.792 85.584 156.88 85.488 155.92 85.344C155.008 85.2 154.096 84.984 153.184 84.696C152.272 84.456 151.432 84.12 150.664 83.688C149.704 83.16 148.936 82.656 148.36 82.176C147.784 81.696 147.496 80.904 147.496 79.8C147.496 78.888 147.688 78.048 148.072 77.28C148.504 76.56 149.224 76.2 150.232 76.2C150.712 76.2 151.24 76.344 151.816 76.632C152.392 76.92 153.088 77.208 153.904 77.496C154.768 77.832 155.776 78.144 156.928 78.432C158.128 78.72 159.568 78.864 161.248 78.864ZM161.608 61.584C163.48 61.584 165.064 61.248 166.36 60.576C167.704 59.856 168.784 58.92 169.6 57.768C170.464 56.616 171.088 55.32 171.472 53.88C171.904 52.44 172.12 51 172.12 49.56C172.12 48.36 171.952 47.16 171.616 45.96C171.328 44.712 170.824 43.584 170.104 42.576C169.384 41.568 168.4 40.752 167.152 40.128C165.904 39.504 164.344 39.192 162.472 39.192C159.304 39.192 156.736 40.152 154.768 42.072C152.848 43.992 151.888 46.824 151.888 50.568C151.888 54.072 152.752 56.784 154.48 58.704C156.208 60.624 158.584 61.584 161.608 61.584ZM201.396 78.864C203.652 78.864 205.548 78.408 207.084 77.496C208.668 76.632 209.94 75.36 210.9 73.68C211.86 72.048 212.532 70.08 212.916 67.776C213.348 65.424 213.564 62.784 213.564 59.856C213.132 61.392 212.508 62.688 211.692 63.744C210.876 64.8 209.916 65.664 208.812 66.336C207.756 66.96 206.556 67.416 205.212 67.704C203.868 67.992 202.476 68.136 201.036 68.136C198.828 68.136 196.74 67.824 194.772 67.2C192.804 66.576 191.076 65.592 189.588 64.248C188.148 62.904 186.996 61.2 186.132 59.136C185.268 57.024 184.836 54.504 184.836 51.576C184.836 48.744 185.244 46.152 186.06 43.8C186.924 41.4 188.148 39.336 189.732 37.608C191.364 35.88 193.332 34.536 195.636 33.576C197.94 32.616 200.58 32.136 203.556 32.136C205.14 32.136 206.532 32.28 207.732 32.568C208.98 32.856 210.084 33.24 211.044 33.72C212.004 34.2 212.844 34.776 213.564 35.448C214.332 36.12 215.028 36.84 215.652 37.608C217.476 39.912 218.796 42.648 219.612 45.816C220.428 48.936 220.836 52.704 220.836 57.12C220.836 60.384 220.548 63.72 219.972 67.128C219.444 70.536 218.46 73.608 217.02 76.344C215.58 79.128 213.588 81.384 211.044 83.112C208.5 84.888 205.236 85.776 201.252 85.776C200.532 85.776 199.716 85.728 198.804 85.632C197.94 85.584 197.028 85.488 196.068 85.344C195.156 85.2 194.244 84.984 193.332 84.696C192.42 84.456 191.58 84.12 190.812 83.688C189.852 83.16 189.084 82.656 188.508 82.176C187.932 81.696 187.644 80.904 187.644 79.8C187.644 78.888 187.836 78.048 188.22 77.28C188.652 76.56 189.372 76.2 190.38 76.2C190.86 76.2 191.388 76.344 191.964 76.632C192.54 76.92 193.236 77.208 194.052 77.496C194.916 77.832 195.924 78.144 197.076 78.432C198.276 78.72 199.716 78.864 201.396 78.864ZM201.756 61.584C203.628 61.584 205.212 61.248 206.508 60.576C207.852 59.856 208.932 58.92 209.748 57.768C210.612 56.616 211.236 55.32 211.62 53.88C212.052 52.44 212.268 51 212.268 49.56C212.268 48.36 212.1 47.16 211.764 45.96C211.476 44.712 210.972 43.584 210.252 42.576C209.532 41.568 208.548 40.752 207.3 40.128C206.052 39.504 204.492 39.192 202.62 39.192C199.452 39.192 196.884 40.152 194.916 42.072C192.996 43.992 192.036 46.824 192.036 50.568C192.036 54.072 192.9 56.784 194.628 58.704C196.356 60.624 198.732 61.584 201.756 61.584ZM227.793 64.824C227.745 63.096 227.697 61.08 227.649 58.776C227.601 56.472 227.553 53.976 227.505 51.288C227.505 48.6 227.481 45.768 227.433 42.792C227.433 39.816 227.433 36.768 227.433 33.648C227.433 30.24 227.457 27.312 227.505 24.864C227.553 22.416 227.673 20.4 227.865 18.816C228.105 17.232 228.465 16.08 228.945 15.36C229.425 14.592 230.097 14.208 230.961 14.208C231.777 14.208 232.497 14.472 233.121 15C233.745 15.528 234.105 16.752 234.201 18.672C234.393 22.128 234.513 25.728 234.561 29.472C234.609 33.168 234.633 36.816 234.633 40.416C234.633 42.576 234.633 44.664 234.633 46.68C234.633 48.648 234.609 50.616 234.561 52.584C234.513 54.504 234.465 56.472 234.417 58.488C234.369 60.504 234.297 62.592 234.201 64.752C234.153 65.904 234.033 66.792 233.841 67.416C233.697 68.04 233.481 68.52 233.193 68.856C232.905 69.192 232.569 69.384 232.185 69.432C231.849 69.528 231.441 69.576 230.961 69.576C230.097 69.576 229.377 69.288 228.801 68.712C228.225 68.088 227.889 66.792 227.793 64.824ZM260.094 55.752C258.414 55.752 256.638 55.632 254.766 55.392C252.942 55.104 250.95 54.528 248.79 53.664C249.222 56.592 250.422 58.8 252.39 60.288C254.406 61.776 257.286 62.52 261.03 62.52C262.374 62.52 263.574 62.448 264.63 62.304C265.734 62.112 266.694 61.92 267.51 61.728C268.326 61.488 269.046 61.296 269.67 61.152C270.294 60.96 270.87 60.864 271.398 60.864C272.07 60.864 272.718 61.08 273.342 61.512C273.966 61.896 274.278 62.568 274.278 63.528C274.278 64.728 273.774 65.712 272.766 66.48C271.806 67.248 270.606 67.872 269.166 68.352C267.774 68.784 266.286 69.072 264.702 69.216C263.118 69.408 261.726 69.504 260.526 69.504C257.694 69.504 255.078 69.12 252.678 68.352C250.326 67.584 248.286 66.432 246.558 64.896C244.83 63.312 243.486 61.368 242.526 59.064C241.566 56.76 241.086 54.072 241.086 51C241.086 48.024 241.542 45.384 242.454 43.08C243.414 40.776 244.71 38.832 246.342 37.248C247.974 35.664 249.894 34.464 252.102 33.648C254.358 32.832 256.782 32.424 259.374 32.424C261.39 32.424 263.334 32.688 265.206 33.216C267.126 33.744 268.806 34.536 270.246 35.592C271.734 36.648 272.91 37.992 273.774 39.624C274.686 41.208 275.142 43.08 275.142 45.24C275.142 47.16 274.782 48.792 274.062 50.136C273.342 51.48 272.31 52.56 270.966 53.376C269.67 54.192 268.086 54.792 266.214 55.176C264.39 55.56 262.35 55.752 260.094 55.752ZM259.59 39.048C258.294 39.048 257.046 39.216 255.846 39.552C254.646 39.84 253.542 40.344 252.534 41.064C251.574 41.736 250.758 42.648 250.086 43.8C249.414 44.904 248.958 46.296 248.718 47.976C250.542 48.792 252.318 49.368 254.046 49.704C255.774 49.992 257.598 50.136 259.518 50.136C262.35 50.136 264.438 49.8 265.782 49.128C267.174 48.408 267.87 47.136 267.87 45.312C267.87 43.632 267.222 42.168 265.926 40.92C264.678 39.672 262.566 39.048 259.59 39.048Z" fill="#00D4A9"/>
<path d="M132.36 63.904C132.264 62.128 132.168 60.112 132.072 57.856C132.024 55.552 132 53.032 132 50.296C132 46.888 132.024 43.984 132.072 41.584C132.12 39.136 132.24 37.144 132.432 35.608C132.672 34.024 133.032 32.872 133.512 32.152C133.992 31.384 134.664 31 135.528 31C136.344 31 137.064 31.288 137.688 31.864C138.312 32.44 138.672 33.688 138.768 35.608C139.056 40.648 139.2 45.52 139.2 50.224C139.2 52.624 139.152 54.88 139.056 56.992C138.96 59.056 138.864 61.336 138.768 63.832C138.72 64.984 138.6 65.872 138.408 66.496C138.264 67.12 138.048 67.6 137.76 67.936C137.472 68.272 137.136 68.464 136.752 68.512C136.416 68.608 136.008 68.656 135.528 68.656C134.664 68.656 133.944 68.368 133.368 67.792C132.792 67.168 132.456 65.872 132.36 63.904Z" fill="#00D4A9"/>
</g>
<defs>
<filter id="filter0_i_544_37" x="8.59998" y="6" width="268.542" height="84.856" filterUnits="userSpaceOnUse" color-interpolation-filters="sRGB">
<feFlood flood-opacity="0" result="BackgroundImageFix"/>
<feBlend mode="normal" in="SourceGraphic" in2="BackgroundImageFix" result="shape"/>
<feColorMatrix in="SourceAlpha" type="matrix" values="0 0 0 0 0 0 0 0 0 0 0 0 0 0 0 0 0 0 127 0" result="hardAlpha"/>
<feOffset dx="2" dy="4"/>
<feGaussianBlur stdDeviation="5"/>
<feComposite in2="hardAlpha" operator="arithmetic" k2="-1" k3="1"/>
<feColorMatrix type="matrix" values="0 0 0 0 0 0 0 0 0 0 0 0 0 0 0 0 0 0 0.25 0"/>
<feBlend mode="normal" in2="shape" result="effect1_innerShadow_544_37"/>
</filter>
</defs>
</svg>
